ffmpeg started on 2026-01-03 at 18:01:27
Report written to "D:\Convert\FFMetrics\reports\psnr_report-6.txt"
Log level: 32
Command line:
ffmpeg -hide_banner -nostdin -i "F:\\Convert\\files\\[DC] Make Heroine ga Oosugiru - 07_Telegram_HEVC(50).mkv" -i "F:\\Convert\\files\\[DC] Make Heroine ga Oosugiru - 07_Telegram.mp4" -lavfi "[0:v]settb=AVTB,setpts=PTS-STARTPTS,format=pix_fmts=yuv420p10le,fps=24000/1001,scale=1920:1080:flags=bicubic[main];[1:v]settb=AVTB,setpts=PTS-STARTPTS,format=pix_fmts=yuv420p,fps=24000/1001,scale=1920:1080:flags=bicubic[ref];[main][ref]psnr=eof_action=endall:stats_file='D\\:/Convert/FFMetrics/logs/psnr_logfile-6.txt'" -f null -
Input #0, matroska,webm, from 'F:\Convert\files\[DC] Make Heroine ga Oosugiru - 07_Telegram_HEVC(50).mkv':
  Metadata:
    COMPATIBLE_BRANDS: isomiso2avc1mp41
    MAJOR_BRAND     : isom
    MINOR_VERSION   : 512
    ENCODER         : Lavf61.7.100
  Duration: 00:24:06.79, start: -0.021000, bitrate: 981 kb/s
  Stream #0:0: Video: hevc (Main 10), yuv420p10le(tv, bt709, progressive), 1920x1080 [SAR 1:1 DAR 16:9], 23.98 fps, 23.98 tbr, 1k tbn (default)
      Metadata:
        HANDLER_NAME    : VideoHandler
        VENDOR_ID       : [0][0][0][0]
        ENCODER         : Lavc61.19.100 libx265
        BPS             : 784104
        DURATION        : 00:24:06.569708333
        NUMBER_OF_FRAMES: 34683
        NUMBER_OF_BYTES : 141782668
        _STATISTICS_WRITING_APP: mkvpropedit v94.0 ('Initiate') 64-bit
        _STATISTICS_WRITING_DATE_UTC: 2026-01-03 13:48:01
        _STATISTICS_TAGS: BPS DURATION NUMBER_OF_FRAMES NUMBER_OF_BYTES
  Stream #0:1: Audio: aac (LC), 48000 Hz, stereo, fltp (default)
      Metadata:
        HANDLER_NAME    : SoundHandler
        VENDOR_ID       : [0][0][0][0]
        ENCODER         : Lavc61.19.100 aac
        BPS             : 193194
        DURATION        : 00:24:06.784000000
        NUMBER_OF_FRAMES: 67819
        NUMBER_OF_BYTES : 34938755
        _STATISTICS_WRITING_APP: mkvpropedit v94.0 ('Initiate') 64-bit
        _STATISTICS_WRITING_DATE_UTC: 2026-01-03 13:48:01
        _STATISTICS_TAGS: BPS DURATION NUMBER_OF_FRAMES NUMBER_OF_BYTES
Input #1, mov,mp4,m4a,3gp,3g2,mj2, from 'F:\Convert\files\[DC] Make Heroine ga Oosugiru - 07_Telegram.mp4':
  Metadata:
    major_brand     : isom
    minor_version   : 512
    compatible_brands: isomiso2avc1mp41
    encoder         : Lavf60.16.100
  Duration: 00:24:06.74, start: 0.000000, bitrate: 3764 kb/s
  Stream #1:0[0x1](und): Video: h264 (High) (avc1 / 0x31637661), yuv420p(tv, bt709, progressive), 1920x1080 [SAR 1:1 DAR 16:9], 3616 kb/s, 23.98 fps, 23.98 tbr, 24k tbn (default)
      Metadata:
        handler_name    : VideoHandler
        vendor_id       : [0][0][0][0]
        encoder         : Lavc60.31.102 h264_qsv
  Stream #1:1[0x2](und): Audio: aac (HE-AACv2) (mp4a / 0x6134706D), 48000 Hz, stereo, fltp, 144 kb/s (default)
      Metadata:
        handler_name    : SoundHandler
        vendor_id       : [0][0][0][0]
Stream mapping:
  Stream #0:0 (hevc) -> settb:default
  Stream #1:0 (h264) -> settb:default
  psnr:default -> Stream #0:0 (wrapped_avframe)
  Stream #0:1 -> #0:1 (aac (native) -> pcm_s16le (native))
Output #0, null, to 'pipe:':
  Metadata:
    COMPATIBLE_BRANDS: isomiso2avc1mp41
    MAJOR_BRAND     : isom
    MINOR_VERSION   : 512
    encoder         : Lavf61.7.100
  Stream #0:0: Video: wrapped_avframe, yuv420p10le(tv, bt709, progressive), 1920x1080 [SAR 1:1 DAR 16:9], q=2-31, 200 kb/s, 23.98 fps, 23.98 tbn
      Metadata:
        encoder         : Lavc61.19.100 wrapped_avframe
  Stream #0:1: Audio: pcm_s16le, 48000 Hz, stereo, s16, 1536 kb/s (default)
      Metadata:
        HANDLER_NAME    : SoundHandler
        VENDOR_ID       : [0][0][0][0]
        _STATISTICS_TAGS: BPS DURATION NUMBER_OF_FRAMES NUMBER_OF_BYTES
        BPS             : 193194
        DURATION        : 00:24:06.784000000
        NUMBER_OF_FRAMES: 67819
        NUMBER_OF_BYTES : 34938755
        _STATISTICS_WRITING_APP: mkvpropedit v94.0 ('Initiate') 64-bit
        _STATISTICS_WRITING_DATE_UTC: 2026-01-03 13:48:01
        encoder         : Lavc61.19.100 pcm_s16le
frame=  193 fps=0.0 q=-0.0 size=N/A time=00:00:08.04 bitrate=N/A speed=15.6x    frame=  462 fps=451 q=-0.0 size=N/A time=00:00:19.26 bitrate=N/A speed=18.8x    frame=  767 fps=495 q=-0.0 size=N/A time=00:00:32.03 bitrate=N/A speed=20.7x    frame=  944 fps=460 q=-0.0 size=N/A time=00:00:39.37 bitrate=N/A speed=19.2x    frame= 1121 fps=435 q=-0.0 size=N/A time=00:00:46.75 bitrate=N/A speed=18.1x    frame= 1302 fps=420 q=-0.0 size=N/A time=00:00:54.30 bitrate=N/A speed=17.5x    frame= 1486 fps=412 q=-0.0 size=N/A time=00:01:01.97 bitrate=N/A speed=17.2x    frame= 1644 fps=399 q=-0.0 size=N/A time=00:01:08.56 bitrate=N/A speed=16.7x    frame= 1840 fps=396 q=-0.0 size=N/A time=00:01:16.74 bitrate=N/A speed=16.5x    frame= 2034 fps=395 q=-0.0 size=N/A time=00:01:24.83 bitrate=N/A speed=16.5x    frame= 2154 fps=379 q=-0.0 size=N/A time=00:01:29.83 bitrate=N/A speed=15.8x    frame= 2332 fps=377 q=-0.0 size=N/A time=00:01:37.26 bitrate=N/A speed=15.7x    frame= 2477 fps=369 q=-0.0 size=N/A time=00:01:43.31 bitrate=N/A speed=15.4x    frame= 2635 fps=365 q=-0.0 size=N/A time=00:01:49.90 bitrate=N/A speed=15.2x    frame= 2847 fps=369 q=-0.0 size=N/A time=00:01:58.74 bitrate=N/A speed=15.4x    frame= 3087 fps=374 q=-0.0 size=N/A time=00:02:08.75 bitrate=N/A speed=15.6x    frame= 3368 fps=384 q=-0.0 size=N/A time=00:02:20.47 bitrate=N/A speed=  16x    frame= 3666 fps=395 q=-0.0 size=N/A time=00:02:32.90 bitrate=N/A speed=16.5x    frame= 3953 fps=404 q=-0.0 size=N/A time=00:02:44.87 bitrate=N/A speed=16.8x    frame= 4248 fps=412 q=-0.0 size=N/A time=00:02:57.17 bitrate=N/A speed=17.2x    frame= 4538 fps=419 q=-0.0 size=N/A time=00:03:09.27 bitrate=N/A speed=17.5x    frame= 4832 fps=426 q=-0.0 size=N/A time=00:03:21.53 bitrate=N/A speed=17.8x    frame= 5124 fps=432 q=-0.0 size=N/A time=00:03:33.71 bitrate=N/A speed=  18x    frame= 5393 fps=436 q=-0.0 size=N/A time=00:03:44.93 bitrate=N/A speed=18.2x    frame= 5686 fps=441 q=-0.0 size=N/A time=00:03:57.15 bitrate=N/A speed=18.4x    frame= 5963 fps=445 q=-0.0 size=N/A time=00:04:08.70 bitrate=N/A speed=18.6x    frame= 6244 fps=448 q=-0.0 size=N/A time=00:04:20.42 bitrate=N/A speed=18.7x    frame= 6543 fps=453 q=-0.0 size=N/A time=00:04:32.89 bitrate=N/A speed=18.9x    frame= 6842 fps=457 q=-0.0 size=N/A time=00:04:45.36 bitrate=N/A speed=19.1x    frame= 7110 fps=459 q=-0.0 size=N/A time=00:04:56.54 bitrate=N/A speed=19.2x    frame= 7387 fps=462 q=-0.0 size=N/A time=00:05:08.09 bitrate=N/A speed=19.3x    frame= 7626 fps=462 q=-0.0 size=N/A time=00:05:18.06 bitrate=N/A speed=19.3x    frame= 7890 fps=463 q=-0.0 size=N/A time=00:05:29.07 bitrate=N/A speed=19.3x    frame= 8164 fps=465 q=-0.0 size=N/A time=00:05:40.50 bitrate=N/A speed=19.4x    frame= 8440 fps=467 q=-0.0 size=N/A time=00:05:52.01 bitrate=N/A speed=19.5x    frame= 8731 fps=470 q=-0.0 size=N/A time=00:06:04.15 bitrate=N/A speed=19.6x    frame= 8999 fps=471 q=-0.0 size=N/A time=00:06:15.33 bitrate=N/A speed=19.7x    frame= 9285 fps=474 q=-0.0 size=N/A time=00:06:27.26 bitrate=N/A speed=19.8x    frame= 9563 fps=475 q=-0.0 size=N/A time=00:06:38.85 bitrate=N/A speed=19.8x    frame= 9844 fps=477 q=-0.0 size=N/A time=00:06:50.57 bitrate=N/A speed=19.9x    frame=10116 fps=478 q=-0.0 size=N/A time=00:07:01.92 bitrate=N/A speed=19.9x    frame=10393 fps=480 q=-0.0 size=N/A time=00:07:13.47 bitrate=N/A speed=  20x    frame=10658 fps=480 q=-0.0 size=N/A time=00:07:24.52 bitrate=N/A speed=  20x    frame=10919 fps=481 q=-0.0 size=N/A time=00:07:35.41 bitrate=N/A speed=20.1x    frame=11172 fps=481 q=-0.0 size=N/A time=00:07:45.96 bitrate=N/A speed=20.1x    frame=11441 fps=482 q=-0.0 size=N/A time=00:07:57.18 bitrate=N/A speed=20.1x    frame=11716 fps=483 q=-0.0 size=N/A time=00:08:08.65 bitrate=N/A speed=20.1x    frame=11997 fps=484 q=-0.0 size=N/A time=00:08:20.37 bitrate=N/A speed=20.2x    frame=12279 fps=485 q=-0.0 size=N/A time=00:08:32.13 bitrate=N/A speed=20.2x    frame=12562 fps=487 q=-0.0 size=N/A time=00:08:43.94 bitrate=N/A speed=20.3x    frame=12834 fps=488 q=-0.0 size=N/A time=00:08:55.28 bitrate=N/A speed=20.3x    frame=13109 fps=488 q=-0.0 size=N/A time=00:09:06.75 bitrate=N/A speed=20.4x    frame=13354 fps=488 q=-0.0 size=N/A time=00:09:16.97 bitrate=N/A speed=20.4x    frame=13619 fps=489 q=-0.0 size=N/A time=00:09:28.02 bitrate=N/A speed=20.4x    frame=13893 fps=489 q=-0.0 size=N/A time=00:09:39.45 bitrate=N/A speed=20.4x    frame=14122 fps=489 q=-0.0 size=N/A time=00:09:49.00 bitrate=N/A speed=20.4x    frame=14388 fps=489 q=-0.0 size=N/A time=00:10:00.09 bitrate=N/A speed=20.4x    frame=14656 fps=490 q=-0.0 size=N/A time=00:10:11.27 bitrate=N/A speed=20.4x    frame=14907 fps=490 q=-0.0 size=N/A time=00:10:21.74 bitrate=N/A speed=20.4x    frame=15128 fps=488 q=-0.0 size=N/A time=00:10:30.96 bitrate=N/A speed=20.4x    frame=15364 fps=488 q=-0.0 size=N/A time=00:10:40.80 bitrate=N/A speed=20.4x    frame=15648 fps=489 q=-0.0 size=N/A time=00:10:52.65 bitrate=N/A speed=20.4x    frame=15923 fps=490 q=-0.0 size=N/A time=00:11:04.12 bitrate=N/A speed=20.4x    frame=16199 fps=490 q=-0.0 size=N/A time=00:11:15.63 bitrate=N/A speed=20.5x    frame=16468 fps=491 q=-0.0 size=N/A time=00:11:26.85 bitrate=N/A speed=20.5x    frame=16746 fps=492 q=-0.0 size=N/A time=00:11:38.44 bitrate=N/A speed=20.5x    frame=17014 fps=492 q=-0.0 size=N/A time=00:11:49.62 bitrate=N/A speed=20.5x    frame=17299 fps=493 q=-0.0 size=N/A time=00:12:01.51 bitrate=N/A speed=20.6x    frame=17558 fps=493 q=-0.0 size=N/A time=00:12:12.31 bitrate=N/A speed=20.6x    frame=17810 fps=493 q=-0.0 size=N/A time=00:12:22.82 bitrate=N/A speed=20.6x    frame=18084 fps=494 q=-0.0 size=N/A time=00:12:34.25 bitrate=N/A speed=20.6x    frame=18312 fps=493 q=-0.0 size=N/A time=00:12:43.76 bitrate=N/A speed=20.6x    frame=18579 fps=493 q=-0.0 size=N/A time=00:12:54.89 bitrate=N/A speed=20.6x    frame=18864 fps=494 q=-0.0 size=N/A time=00:13:06.78 bitrate=N/A speed=20.6x    frame=19156 fps=495 q=-0.0 size=N/A time=00:13:18.96 bitrate=N/A speed=20.6x    frame=19440 fps=496 q=-0.0 size=N/A time=00:13:30.81 bitrate=N/A speed=20.7x    frame=19726 fps=496 q=-0.0 size=N/A time=00:13:42.73 bitrate=N/A speed=20.7x    frame=20006 fps=497 q=-0.0 size=N/A time=00:13:54.41 bitrate=N/A speed=20.7x    frame=20304 fps=498 q=-0.0 size=N/A time=00:14:06.84 bitrate=N/A speed=20.8x    frame=20542 fps=498 q=-0.0 size=N/A time=00:14:16.77 bitrate=N/A speed=20.8x    frame=20806 fps=498 q=-0.0 size=N/A time=00:14:27.78 bitrate=N/A speed=20.8x    frame=21093 fps=499 q=-0.0 size=N/A time=00:14:39.75 bitrate=N/A speed=20.8x    frame=21379 fps=499 q=-0.0 size=N/A time=00:14:51.68 bitrate=N/A speed=20.8x    frame=21658 fps=500 q=-0.0 size=N/A time=00:15:03.31 bitrate=N/A speed=20.8x    frame=21943 fps=500 q=-0.0 size=N/A time=00:15:15.20 bitrate=N/A speed=20.9x    frame=22224 fps=501 q=-0.0 size=N/A time=00:15:26.92 bitrate=N/A speed=20.9x    frame=22510 fps=501 q=-0.0 size=N/A time=00:15:38.85 bitrate=N/A speed=20.9x    frame=22780 fps=502 q=-0.0 size=N/A time=00:15:50.11 bitrate=N/A speed=20.9x    frame=23051 fps=502 q=-0.0 size=N/A time=00:16:01.41 bitrate=N/A speed=20.9x    frame=23336 fps=503 q=-0.0 size=N/A time=00:16:13.30 bitrate=N/A speed=  21x    frame=23628 fps=503 q=-0.0 size=N/A time=00:16:25.48 bitrate=N/A speed=  21x    frame=23916 fps=504 q=-0.0 size=N/A time=00:16:37.49 bitrate=N/A speed=  21x    frame=24177 fps=504 q=-0.0 size=N/A time=00:16:48.38 bitrate=N/A speed=  21x    frame=24462 fps=504 q=-0.0 size=N/A time=00:17:00.26 bitrate=N/A speed=  21x    frame=24762 fps=505 q=-0.0 size=N/A time=00:17:12.78 bitrate=N/A speed=21.1x    frame=25039 fps=506 q=-0.0 size=N/A time=00:17:24.33 bitrate=N/A speed=21.1x    frame=25330 fps=506 q=-0.0 size=N/A time=00:17:36.47 bitrate=N/A speed=21.1x    frame=25612 fps=507 q=-0.0 size=N/A time=00:17:48.23 bitrate=N/A speed=21.1x    frame=25895 fps=507 q=-0.0 size=N/A time=00:18:00.03 bitrate=N/A speed=21.1x    frame=26176 fps=507 q=-0.0 size=N/A time=00:18:11.75 bitrate=N/A speed=21.2x    frame=26461 fps=508 q=-0.0 size=N/A time=00:18:23.64 bitrate=N/A speed=21.2x    frame=26747 fps=508 q=-0.0 size=N/A time=00:18:35.57 bitrate=N/A speed=21.2x    frame=26991 fps=508 q=-0.0 size=N/A time=00:18:45.74 bitrate=N/A speed=21.2x    frame=27226 fps=508 q=-0.0 size=N/A time=00:18:55.55 bitrate=N/A speed=21.2x    frame=27483 fps=507 q=-0.0 size=N/A time=00:19:06.27 bitrate=N/A speed=21.2x    frame=27737 fps=507 q=-0.0 size=N/A time=00:19:16.86 bitrate=N/A speed=21.2x    frame=28008 fps=507 q=-0.0 size=N/A time=00:19:28.16 bitrate=N/A speed=21.2x    frame=28270 fps=507 q=-0.0 size=N/A time=00:19:39.09 bitrate=N/A speed=21.2x    frame=28527 fps=507 q=-0.0 size=N/A time=00:19:49.81 bitrate=N/A speed=21.2x    frame=28756 fps=507 q=-0.0 size=N/A time=00:19:59.36 bitrate=N/A speed=21.1x    frame=28966 fps=506 q=-0.0 size=N/A time=00:20:08.12 bitrate=N/A speed=21.1x    frame=29199 fps=505 q=-0.0 size=N/A time=00:20:17.84 bitrate=N/A speed=21.1x    frame=29422 fps=505 q=-0.0 size=N/A time=00:20:27.14 bitrate=N/A speed=21.1x    frame=29640 fps=504 q=-0.0 size=N/A time=00:20:36.23 bitrate=N/A speed=  21x    frame=29852 fps=503 q=-0.0 size=N/A time=00:20:45.07 bitrate=N/A speed=  21x    frame=30045 fps=502 q=-0.0 size=N/A time=00:20:53.12 bitrate=N/A speed=20.9x    frame=30286 fps=502 q=-0.0 size=N/A time=00:21:03.17 bitrate=N/A speed=20.9x    frame=30565 fps=502 q=-0.0 size=N/A time=00:21:14.81 bitrate=N/A speed=20.9x    frame=30827 fps=502 q=-0.0 size=N/A time=00:21:25.74 bitrate=N/A speed=20.9x    frame=31100 fps=502 q=-0.0 size=N/A time=00:21:37.12 bitrate=N/A speed=  21x    frame=31347 fps=502 q=-0.0 size=N/A time=00:21:47.43 bitrate=N/A speed=20.9x    frame=31610 fps=502 q=-0.0 size=N/A time=00:21:58.40 bitrate=N/A speed=  21x    frame=31846 fps=502 q=-0.0 size=N/A time=00:22:08.24 bitrate=N/A speed=20.9x    frame=32079 fps=501 q=-0.0 size=N/A time=00:22:17.96 bitrate=N/A speed=20.9x    frame=32354 fps=502 q=-0.0 size=N/A time=00:22:29.43 bitrate=N/A speed=20.9x    frame=32609 fps=502 q=-0.0 size=N/A time=00:22:40.06 bitrate=N/A speed=20.9x    frame=32778 fps=500 q=-0.0 size=N/A time=00:22:47.11 bitrate=N/A speed=20.9x    frame=32983 fps=500 q=-0.0 size=N/A time=00:22:55.66 bitrate=N/A speed=20.8x    frame=33206 fps=499 q=-0.0 size=N/A time=00:23:04.96 bitrate=N/A speed=20.8x    frame=33412 fps=498 q=-0.0 size=N/A time=00:23:13.55 bitrate=N/A speed=20.8x    frame=33578 fps=497 q=-0.0 size=N/A time=00:23:20.48 bitrate=N/A speed=20.7x    frame=33746 fps=496 q=-0.0 size=N/A time=00:23:27.48 bitrate=N/A speed=20.7x    frame=33878 fps=494 q=-0.0 size=N/A time=00:23:32.99 bitrate=N/A speed=20.6x    frame=34062 fps=493 q=-0.0 size=N/A time=00:23:40.66 bitrate=N/A speed=20.6x    frame=34247 fps=492 q=-0.0 size=N/A time=00:23:48.38 bitrate=N/A speed=20.5x    frame=34385 fps=490 q=-0.0 size=N/A time=00:23:54.14 bitrate=N/A speed=20.4x    frame=34583 fps=489 q=-0.0 size=N/A time=00:24:02.39 bitrate=N/A speed=20.4x    [Parsed_psnr_10 @ 000001c6396c4740] PSNR y:48.949605 u:50.327851 v:50.379375 average:49.369097 min:38.002599 max:inf
[out#0/null @ 000001c638e74e40] video:14903KiB audio:271276KiB subtitle:0KiB other streams:0KiB global headers:0KiB muxing overhead: unknown
frame=34683 fps=489 q=-0.0 Lsize=N/A time=00:24:06.57 bitrate=N/A speed=20.4x    
